<svg xmlns="http://www.w3.org/2000/svg" xmlns:xlink="http://www.w3.org/1999/xlink" xml:lang="en" height="538.6pt" width="819.974pt" viewBox="-100.408 -186.5 819.974 538.6"><polygon points="461.7,-63 474.3,-54 461.7,-45 " style="stroke:black;fill:none;stroke-width:2.0;stroke-dasharray:-;stroke-linecap:round;stroke-linejoin:round;" /><polygon points="587.7,-63 600.3,-54 587.7,-45 " style="stroke:black;fill:none;stroke-width:2.0;stroke-dasharray:-;stroke-linecap:round;stroke-linejoin:round;" /><polygon points="461.7,30.6 474.3,39.6 461.7,48.6 " style="stroke:black;fill:none;stroke-width:2.0;stroke-dasharray:-;stroke-linecap:round;stroke-linejoin:round;" /><polygon points="587.7,30.6 600.3,39.6 587.7,48.6 " style="stroke:black;fill:none;stroke-width:2.0;stroke-dasharray:-;stroke-linecap:round;stroke-linejoin:round;" /><path d="M 0.0,-0.0 L 139.032,-0 L 139.032,-180 L 0,-180 L 0,-0" style="stroke:black;fill:none;stroke-width:2.0;stroke-dasharray:-;stroke-linecap:round;stroke-linejoin:round;" /><path d="M 0.0,-14.399999999999997 L -18,-14.4" style="stroke:black;fill:none;stroke-width:2.0;stroke-dasharray:-;stroke-linecap:round;stroke-linejoin:round;" /><path d="M 0.0,-39.599999999999994 L -18,-39.6" style="stroke:black;fill:none;stroke-width:2.0;stroke-dasharray:-;stroke-linecap:round;stroke-linejoin:round;" /><path d="M 0.0,-64.8 L -18,-64.8" style="stroke:black;fill:none;stroke-width:2.0;stroke-dasharray:-;stroke-linecap:round;stroke-linejoin:round;" /><path d="M 0.0,-89.99999999999999 L -18,-90" style="stroke:black;fill:none;stroke-width:2.0;stroke-dasharray:-;stroke-linecap:round;stroke-linejoin:round;" /><path d="M 0.0,-115.19999999999999 L -18,-115.2" style="stroke:black;fill:none;stroke-width:2.0;stroke-dasharray:-;stroke-linecap:round;stroke-linejoin:round;" /><path d="M 0.0,-140.4 L -18,-140.4" style="stroke:black;fill:none;stroke-width:2.0;stroke-dasharray:-;stroke-linecap:round;stroke-linejoin:round;" /><path d="M 0.0,-165.6 L -18,-165.6" style="stroke:black;fill:none;stroke-width:2.0;stroke-dasharray:-;stroke-linecap:round;stroke-linejoin:round;" /><path d="M 139.032,-14.399999999999997 L 157.032,-14.4" style="stroke:black;fill:none;stroke-width:2.0;stroke-dasharray:-;stroke-linecap:round;stroke-linejoin:round;" /><path d="M 139.032,-39.599999999999994 L 157.032,-39.6" style="stroke:black;fill:none;stroke-width:2.0;stroke-dasharray:-;stroke-linecap:round;stroke-linejoin:round;" /><path d="M 139.032,-64.8 L 157.032,-64.8" style="stroke:black;fill:none;stroke-width:2.0;stroke-dasharray:-;stroke-linecap:round;stroke-linejoin:round;" /><path d="M 139.032,-89.99999999999999 L 157.032,-90" style="stroke:black;fill:none;stroke-width:2.0;stroke-dasharray:-;stroke-linecap:round;stroke-linejoin:round;" /><path d="M 139.032,-115.19999999999999 L 157.032,-115.2" style="stroke:black;fill:none;stroke-width:2.0;stroke-dasharray:-;stroke-linecap:round;stroke-linejoin:round;" /><path d="M 139.032,-140.4 L 157.032,-140.4" style="stroke:black;fill:none;stroke-width:2.0;stroke-dasharray:-;stroke-linecap:round;stroke-linejoin:round;" /><path d="M 139.032,-165.6 L 157.032,-165.6" style="stroke:black;fill:none;stroke-width:2.0;stroke-dasharray:-;stroke-linecap:round;stroke-linejoin:round;" /><path d="M 157.032,-14.399999999999997 L 157.032,-28.8" style="stroke:black;fill:none;stroke-width:2.0;stroke-dasharray:-;stroke-linecap:round;stroke-linejoin:round;" /><path d="M 157.032,-28.799999999999997 L 150.282,-28.8" style="stroke:black;fill:none;stroke-width:2.0;stroke-dasharray:-;stroke-linecap:round;stroke-linejoin:round;" /><path d="M 157.032,-28.799999999999997 L 163.782,-28.8" style="stroke:black;fill:none;stroke-width:2.0;stroke-dasharray:-;stroke-linecap:round;stroke-linejoin:round;" /><path d="M 157.032,-39.599999999999994 L 157.032,-54" style="stroke:black;fill:none;stroke-width:2.0;stroke-dasharray:-;stroke-linecap:round;stroke-linejoin:round;" /><path d="M 157.032,-54.0 L 150.282,-54" style="stroke:black;fill:none;stroke-width:2.0;stroke-dasharray:-;stroke-linecap:round;stroke-linejoin:round;" /><path d="M 157.032,-54.0 L 163.782,-54" style="stroke:black;fill:none;stroke-width:2.0;stroke-dasharray:-;stroke-linecap:round;stroke-linejoin:round;" /><path d="M 157.032,-64.8 L 157.032,-50.4 L 148.032,-50.4 L 166.032,-50.4 M 150.732,-46.08 L 163.332,-46.08 M 155.232,-41.76 L 158.832,-41.76" style="stroke:black;fill:none;stroke-width:2.0;stroke-dasharray:-;stroke-linecap:round;stroke-linejoin:round;" /><path d="M -18.0,-14.399999999999997 L -32.4,-14.4 L -46.8,-14.4" style="stroke:black;fill:none;stroke-width:2.0;stroke-dasharray:-;stroke-linecap:round;stroke-linejoin:round;" /><path d="M -18.0,-39.599999999999994 L -32.4,-39.6 L -46.8,-39.6" style="stroke:black;fill:none;stroke-width:2.0;stroke-dasharray:-;stroke-linecap:round;stroke-linejoin:round;" /><path d="M -18.0,-64.8 L -32.4,-64.8 L -46.8,-64.8" style="stroke:black;fill:none;stroke-width:2.0;stroke-dasharray:-;stroke-linecap:round;stroke-linejoin:round;" /><path d="M -18.0,-89.99999999999999 L -32.4,-90 L -46.8,-90" style="stroke:black;fill:none;stroke-width:2.0;stroke-dasharray:-;stroke-linecap:round;stroke-linejoin:round;" /><path d="M -18.0,-115.19999999999999 L -32.4,-115.2 L -46.8,-115.2" style="stroke:black;fill:none;stroke-width:2.0;stroke-dasharray:-;stroke-linecap:round;stroke-linejoin:round;" /><path d="M -18.0,-140.4 L -32.4,-140.4 L -46.8,-140.4" style="stroke:black;fill:none;stroke-width:2.0;stroke-dasharray:-;stroke-linecap:round;stroke-linejoin:round;" /><path d="M -18.0,-165.6 L -32.4,-165.6 L -46.8,-165.6" style="stroke:black;fill:none;stroke-width:2.0;stroke-dasharray:-;stroke-linecap:round;stroke-linejoin:round;" /><path d="M 157.032,-89.99999999999999 L 171.432,-90 L 185.832,-90" style="stroke:black;fill:none;stroke-width:2.0;stroke-dasharray:-;stroke-linecap:round;stroke-linejoin:round;" /><path d="M 157.032,-115.19999999999999 L 171.432,-115.2 L 185.832,-115.2" style="stroke:black;fill:none;stroke-width:2.0;stroke-dasharray:-;stroke-linecap:round;stroke-linejoin:round;" /><path d="M 157.032,-165.6 L 171.432,-165.6 L 185.832,-165.6" style="stroke:black;fill:none;stroke-width:2.0;stroke-dasharray:-;stroke-linecap:round;stroke-linejoin:round;" /><path d="M 306.0,-54.0 L 342,-54 M 350.64,-57.6 L 370.8,-70.2 M 378,-54 L 414,-54" style="stroke:black;fill:none;stroke-width:2.0;stroke-dasharray:-;stroke-linecap:round;stroke-linejoin:round;" /><path d="M 414.0,-54.0 L 461.7,-54 M 474.3,-63 L 474.3,-45 M 474.3,-54 L 522,-54" style="stroke:black;fill:none;stroke-width:2.0;stroke-dasharray:-;stroke-linecap:round;stroke-linejoin:round;" /><path d="M 432.0,-54.0 L 468,-54 M 476.64,-57.6 L 496.8,-70.2 M 504,-54 L 540,-54" style="stroke:black;fill:none;stroke-width:2.0;stroke-dasharray:-;stroke-linecap:round;stroke-linejoin:round;" /><path d="M 540.0,-54.0 L 587.7,-54 M 600.3,-63 L 600.3,-45 M 600.3,-54 L 648,-54" style="stroke:black;fill:none;stroke-width:2.0;stroke-dasharray:-;stroke-linecap:round;stroke-linejoin:round;" /><path d="M 306.0,39.6 L 342,39.6 M 350.64,36 L 370.8,23.4 M 378,39.6 L 414,39.6" style="stroke:black;fill:none;stroke-width:2.0;stroke-dasharray:-;stroke-linecap:round;stroke-linejoin:round;" /><path d="M 414.0,39.6 L 461.7,39.6 M 474.3,30.6 L 474.3,48.6 M 474.3,39.6 L 522,39.6" style="stroke:black;fill:none;stroke-width:2.0;stroke-dasharray:-;stroke-linecap:round;stroke-linejoin:round;" /><path d="M 432.0,39.6 L 468,39.6 M 476.64,36 L 496.8,23.4 M 504,39.6 L 540,39.6" style="stroke:black;fill:none;stroke-width:2.0;stroke-dasharray:-;stroke-linecap:round;stroke-linejoin:round;" /><path d="M 540.0,39.6 L 587.7,39.6 M 600.3,30.6 L 600.3,48.6 M 600.3,39.6 L 648,39.6" style="stroke:black;fill:none;stroke-width:2.0;stroke-dasharray:-;stroke-linecap:round;stroke-linejoin:round;" /><path d="M 288.0,-90.0 L 288,-16.2 L 288,57.6" style="stroke:black;fill:none;stroke-width:2.0;stroke-dasharray:-;stroke-linecap:round;stroke-linejoin:round;" /><path d="M 306.0,-54.0 L 297,-54 L 288,-54" style="stroke:black;fill:none;stroke-width:2.0;stroke-dasharray:-;stroke-linecap:round;stroke-linejoin:round;" /><path d="M 306.0,39.6 L 297,39.6 L 288,39.6" style="stroke:black;fill:none;stroke-width:2.0;stroke-dasharray:-;stroke-linecap:round;stroke-linejoin:round;" /><path d="M 414.0,-90.0 L 414,-16.2 L 414,57.6" style="stroke:black;fill:none;stroke-width:2.0;stroke-dasharray:-;stroke-linecap:round;stroke-linejoin:round;" /><path d="M 432.0,-54.0 L 423,-54 L 414,-54" style="stroke:black;fill:none;stroke-width:2.0;stroke-dasharray:-;stroke-linecap:round;stroke-linejoin:round;" /><path d="M 432.0,39.6 L 423,39.6 L 414,39.6" style="stroke:black;fill:none;stroke-width:2.0;stroke-dasharray:-;stroke-linecap:round;stroke-linejoin:round;" /><path d="M 507.59999999999997,-104.39999999999999 L 592.2,-104.4 L 676.8,-104.4" style="stroke:black;fill:none;stroke-width:2.0;stroke-dasharray:-;stroke-linecap:round;stroke-linejoin:round;" /><path d="M 522.0,-54.0 L 522,-79.2 L 522,-104.4" style="stroke:black;fill:none;stroke-width:2.0;stroke-dasharray:-;stroke-linecap:round;stroke-linejoin:round;" /><path d="M 648.0,-54.0 L 648,-79.2 L 648,-104.4" style="stroke:black;fill:none;stroke-width:2.0;stroke-dasharray:-;stroke-linecap:round;stroke-linejoin:round;" /><path d="M 507.59999999999997,-10.799999999999994 L 592.2,-10.8 L 676.8,-10.8" style="stroke:black;fill:none;stroke-width:2.0;stroke-dasharray:-;stroke-linecap:round;stroke-linejoin:round;" /><path d="M 522.0,39.6 L 522,14.4 L 522,-10.8" style="stroke:black;fill:none;stroke-width:2.0;stroke-dasharray:-;stroke-linecap:round;stroke-linejoin:round;" /><path d="M 648.0,39.6 L 648,14.4 L 648,-10.8" style="stroke:black;fill:none;stroke-width:2.0;stroke-dasharray:-;stroke-linecap:round;stroke-linejoin:round;" /><path d="M 324.0,162.0 L 324,126 L 315,126 L 315,90 L 333,90 L 333,126 L 324,126 M 324,90 L 324,54" style="stroke:black;fill:none;stroke-width:2.0;stroke-dasharray:-;stroke-linecap:round;stroke-linejoin:round;" /><path d="M 266.40000000000003,136.79999999999998 L 252,136.8 L 237.6,136.8" style="stroke:black;fill:none;stroke-width:2.0;stroke-dasharray:-;stroke-linecap:round;stroke-linejoin:round;" /><path d="M 266.40000000000003,162.0 L 252,162 L 237.6,162" style="stroke:black;fill:none;stroke-width:2.0;stroke-dasharray:-;stroke-linecap:round;stroke-linejoin:round;" /><path d="M 266.40000000000003,187.20000000000002 L 252,187.2 L 237.6,187.2" style="stroke:black;fill:none;stroke-width:2.0;stroke-dasharray:-;stroke-linecap:round;stroke-linejoin:round;" /><path d="M 381.59999999999997,144.0 L 396,144 L 410.4,144" style="stroke:black;fill:none;stroke-width:2.0;stroke-dasharray:-;stroke-linecap:round;stroke-linejoin:round;" /><path d="M 381.59999999999997,180.0 L 396,180 L 410.4,180" style="stroke:black;fill:none;stroke-width:2.0;stroke-dasharray:-;stroke-linecap:round;stroke-linejoin:round;" /><path d="M 324.0,306.0 L 360,306 L 360,297 L 396,297 L 396,315 L 360,315 L 360,306 M 396,306 L 432,306" style="stroke:black;fill:none;stroke-width:2.0;stroke-dasharray:-;stroke-linecap:round;stroke-linejoin:round;" /><path d="M 266.40000000000003,273.59999999999997 L 252,273.6 L 237.6,273.6" style="stroke:black;fill:none;stroke-width:2.0;stroke-dasharray:-;stroke-linecap:round;stroke-linejoin:round;" /><path d="M 266.40000000000003,295.2 L 252,295.2 L 237.6,295.2" style="stroke:black;fill:none;stroke-width:2.0;stroke-dasharray:-;stroke-linecap:round;stroke-linejoin:round;" /><path d="M 266.40000000000003,316.8 L 252,316.8 L 237.6,316.8" style="stroke:black;fill:none;stroke-width:2.0;stroke-dasharray:-;stroke-linecap:round;stroke-linejoin:round;" /><path d="M 266.40000000000003,338.40000000000003 L 252,338.4 L 237.6,338.4" style="stroke:black;fill:none;stroke-width:2.0;stroke-dasharray:-;stroke-linecap:round;stroke-linejoin:round;" /><text x="-2.6999999999999997" y="-28.099999999999998" dominant-baseline="ideographic" fill="black" font-size="11" font-family="sans" text-anchor="end"><tspan x="-2.6999999999999997" dy="11">1</tspan></text><text x="5.3999999999999995" y="-28.4" dominant-baseline="central" fill="black" font-size="14" font-family="sans" text-anchor="start"><tspan x="5.3999999999999995" dy="14">D0/GP26</tspan></text><text x="-2.6999999999999997" y="-53.3" dominant-baseline="ideographic" fill="black" font-size="11" font-family="sans" text-anchor="end"><tspan x="-2.6999999999999997" dy="11">2</tspan></text><text x="5.3999999999999995" y="-53.599999999999994" dominant-baseline="central" fill="black" font-size="14" font-family="sans" text-anchor="start"><tspan x="5.3999999999999995" dy="14">D1/GP27</tspan></text><text x="-2.6999999999999997" y="-78.49999999999999" dominant-baseline="ideographic" fill="black" font-size="11" font-family="sans" text-anchor="end"><tspan x="-2.6999999999999997" dy="11">3</tspan></text><text x="5.3999999999999995" y="-78.8" dominant-baseline="central" fill="black" font-size="14" font-family="sans" text-anchor="start"><tspan x="5.3999999999999995" dy="14">D2/GP28</tspan></text><text x="-2.6999999999999997" y="-103.69999999999999" dominant-baseline="ideographic" fill="black" font-size="11" font-family="sans" text-anchor="end"><tspan x="-2.6999999999999997" dy="11">4</tspan></text><text x="5.3999999999999995" y="-103.99999999999999" dominant-baseline="central" fill="black" font-size="14" font-family="sans" text-anchor="start"><tspan x="5.3999999999999995" dy="14">D3/GP29</tspan></text><text x="-2.6999999999999997" y="-128.89999999999998" dominant-baseline="ideographic" fill="black" font-size="11" font-family="sans" text-anchor="end"><tspan x="-2.6999999999999997" dy="11">5</tspan></text><text x="5.3999999999999995" y="-129.2" dominant-baseline="central" fill="black" font-size="14" font-family="sans" text-anchor="start"><tspan x="5.3999999999999995" dy="14">D4/GP6</tspan></text><text x="-2.6999999999999997" y="-154.1" dominant-baseline="ideographic" fill="black" font-size="11" font-family="sans" text-anchor="end"><tspan x="-2.6999999999999997" dy="11">6</tspan></text><text x="5.3999999999999995" y="-154.4" dominant-baseline="central" fill="black" font-size="14" font-family="sans" text-anchor="start"><tspan x="5.3999999999999995" dy="14">D5/GP7</tspan></text><text x="-2.6999999999999997" y="-179.29999999999998" dominant-baseline="ideographic" fill="black" font-size="11" font-family="sans" text-anchor="end"><tspan x="-2.6999999999999997" dy="11">7</tspan></text><text x="5.3999999999999995" y="-179.6" dominant-baseline="central" fill="black" font-size="14" font-family="sans" text-anchor="start"><tspan x="5.3999999999999995" dy="14">D6/GP0</tspan></text><text x="141.73200000000003" y="-28.099999999999998" dominant-baseline="ideographic" fill="black" font-size="11" font-family="sans" text-anchor="start"><tspan x="141.73200000000003" dy="11">14</tspan></text><text x="133.63200000000003" y="-28.4" dominant-baseline="central" fill="black" font-size="14" font-family="sans" text-anchor="end"><tspan x="133.63200000000003" dy="14">5V</tspan></text><text x="141.73200000000003" y="-53.3" dominant-baseline="ideographic" fill="black" font-size="11" font-family="sans" text-anchor="start"><tspan x="141.73200000000003" dy="11">13</tspan></text><text x="133.63200000000003" y="-53.599999999999994" dominant-baseline="central" fill="black" font-size="14" font-family="sans" text-anchor="end"><tspan x="133.63200000000003" dy="14">3V3</tspan></text><text x="141.73200000000003" y="-78.49999999999999" dominant-baseline="ideographic" fill="black" font-size="11" font-family="sans" text-anchor="start"><tspan x="141.73200000000003" dy="11">12</tspan></text><text x="133.63200000000003" y="-78.8" dominant-baseline="central" fill="black" font-size="14" font-family="sans" text-anchor="end"><tspan x="133.63200000000003" dy="14">GND</tspan></text><text x="141.73200000000003" y="-103.69999999999999" dominant-baseline="ideographic" fill="black" font-size="11" font-family="sans" text-anchor="start"><tspan x="141.73200000000003" dy="11">11</tspan></text><text x="133.63200000000003" y="-103.99999999999999" dominant-baseline="central" fill="black" font-size="14" font-family="sans" text-anchor="end"><tspan x="133.63200000000003" dy="14">D7/GP1</tspan></text><text x="141.73200000000003" y="-128.89999999999998" dominant-baseline="ideographic" fill="black" font-size="11" font-family="sans" text-anchor="start"><tspan x="141.73200000000003" dy="11">10</tspan></text><text x="133.63200000000003" y="-129.2" dominant-baseline="central" fill="black" font-size="14" font-family="sans" text-anchor="end"><tspan x="133.63200000000003" dy="14">D8/GP2</tspan></text><text x="141.73200000000003" y="-154.1" dominant-baseline="ideographic" fill="black" font-size="11" font-family="sans" text-anchor="start"><tspan x="141.73200000000003" dy="11">9</tspan></text><text x="133.63200000000003" y="-154.4" dominant-baseline="central" fill="black" font-size="14" font-family="sans" text-anchor="end"><tspan x="133.63200000000003" dy="14">D9/GP4</tspan></text><text x="141.73200000000003" y="-179.29999999999998" dominant-baseline="ideographic" fill="black" font-size="11" font-family="sans" text-anchor="start"><tspan x="141.73200000000003" dy="11">8</tspan></text><text x="133.63200000000003" y="-179.6" dominant-baseline="central" fill="black" font-size="14" font-family="sans" text-anchor="end"><tspan x="133.63200000000003" dy="14">D10/GP3</tspan></text><text x="73.116" y="-115.6" dominant-baseline="central" fill="black" font-size="11" font-family="sans" text-anchor="middle"><tspan x="73.116" dy="11">XIAO</tspan><tspan x="73.116" dy="11">RP2040</tspan><tspan x="73.116" dy="11">U1</tspan></text><text x="167.382" y="-32.599999999999994" dominant-baseline="central" fill="black" font-size="11" font-family="sans" text-anchor="start"><tspan x="167.382" dy="11">+5V</tspan></text><text x="167.382" y="-57.8" dominant-baseline="central" fill="black" font-size="11" font-family="sans" text-anchor="start"><tspan x="167.382" dy="11">+3V3</tspan></text><text x="-50.4" y="-25.4" dominant-baseline="central" fill="black" font-size="11" font-family="sans" text-anchor="end"><tspan x="-50.4" dy="11">COL0</tspan></text><text x="-50.4" y="-50.599999999999994" dominant-baseline="central" fill="black" font-size="11" font-family="sans" text-anchor="end"><tspan x="-50.4" dy="11">COL1</tspan></text><text x="-50.4" y="-75.8" dominant-baseline="central" fill="black" font-size="11" font-family="sans" text-anchor="end"><tspan x="-50.4" dy="11">ENC_A</tspan></text><text x="-50.4" y="-100.99999999999999" dominant-baseline="central" fill="black" font-size="11" font-family="sans" text-anchor="end"><tspan x="-50.4" dy="11">ENC_B</tspan></text><text x="-50.4" y="-126.19999999999999" dominant-baseline="central" fill="black" font-size="11" font-family="sans" text-anchor="end"><tspan x="-50.4" dy="11">I2C_SDA</tspan></text><text x="-50.4" y="-151.4" dominant-baseline="central" fill="black" font-size="11" font-family="sans" text-anchor="end"><tspan x="-50.4" dy="11">I2C_SCL</tspan></text><text x="-50.4" y="-176.6" dominant-baseline="central" fill="black" font-size="11" font-family="sans" text-anchor="end"><tspan x="-50.4" dy="11">ROW0</tspan></text><text x="189.43200000000002" y="-100.99999999999999" dominant-baseline="central" fill="black" font-size="11" font-family="sans" text-anchor="start"><tspan x="189.43200000000002" dy="11">ROW1</tspan></text><text x="189.43200000000002" y="-126.19999999999999" dominant-baseline="central" fill="black" font-size="11" font-family="sans" text-anchor="start"><tspan x="189.43200000000002" dy="11">ENC_PUSH</tspan></text><text x="189.43200000000002" y="-176.6" dominant-baseline="central" fill="black" font-size="11" font-family="sans" text-anchor="start"><tspan x="189.43200000000002" dy="11">RGB_DIN</tspan></text><circle cx="346.32" cy="-54" r="4.32" style="stroke:black;fill:white;stroke-width:2.0;stroke-dasharray:-;" /><circle cx="373.68" cy="-54" r="4.32" style="stroke:black;fill:white;stroke-width:2.0;stroke-dasharray:-;" /><text x="360.0" y="-84.8" dominant-baseline="ideographic" fill="black" font-size="11" font-family="sans" text-anchor="middle"><tspan x="360.0" dy="11">SW1</tspan></text><text x="468.0" y="-77.60000000000001" dominant-baseline="ideographic" fill="black" font-size="11" font-family="sans" text-anchor="middle"><tspan x="468.0" dy="11">D1</tspan></text><circle cx="472.32" cy="-54" r="4.32" style="stroke:black;fill:white;stroke-width:2.0;stroke-dasharray:-;" /><circle cx="499.68" cy="-54" r="4.32" style="stroke:black;fill:white;stroke-width:2.0;stroke-dasharray:-;" /><text x="486.0" y="-84.8" dominant-baseline="ideographic" fill="black" font-size="11" font-family="sans" text-anchor="middle"><tspan x="486.0" dy="11">SW2</tspan></text><text x="594.0" y="-77.60000000000001" dominant-baseline="ideographic" fill="black" font-size="11" font-family="sans" text-anchor="middle"><tspan x="594.0" dy="11">D2</tspan></text><circle cx="346.32" cy="39.6" r="4.32" style="stroke:black;fill:white;stroke-width:2.0;stroke-dasharray:-;" /><circle cx="373.68" cy="39.6" r="4.32" style="stroke:black;fill:white;stroke-width:2.0;stroke-dasharray:-;" /><text x="360.0" y="8.8" dominant-baseline="ideographic" fill="black" font-size="11" font-family="sans" text-anchor="middle"><tspan x="360.0" dy="11">SW3</tspan></text><text x="468.0" y="16.000000000000004" dominant-baseline="ideographic" fill="black" font-size="11" font-family="sans" text-anchor="middle"><tspan x="468.0" dy="11">D3</tspan></text><circle cx="472.32" cy="39.6" r="4.32" style="stroke:black;fill:white;stroke-width:2.0;stroke-dasharray:-;" /><circle cx="499.68" cy="39.6" r="4.32" style="stroke:black;fill:white;stroke-width:2.0;stroke-dasharray:-;" /><text x="486.0" y="8.8" dominant-baseline="ideographic" fill="black" font-size="11" font-family="sans" text-anchor="middle"><tspan x="486.0" dy="11">SW4</tspan></text><text x="594.0" y="16.000000000000004" dominant-baseline="ideographic" fill="black" font-size="11" font-family="sans" text-anchor="middle"><tspan x="594.0" dy="11">D4</tspan></text><text x="291.59999999999997" y="-108.19999999999999" dominant-baseline="central" fill="black" font-size="11" font-family="sans" text-anchor="middle"><tspan x="291.59999999999997" dy="11">COL0</tspan></text><text x="417.59999999999997" y="-108.19999999999999" dominant-baseline="central" fill="black" font-size="11" font-family="sans" text-anchor="middle"><tspan x="417.59999999999997" dy="11">COL1</tspan></text><text x="698.4000000000001" y="-119.0" dominant-baseline="central" fill="black" font-size="11" font-family="sans" text-anchor="middle"><tspan x="698.4000000000001" dy="11">ROW0</tspan></text><text x="698.4000000000001" y="-25.39999999999999" dominant-baseline="central" fill="black" font-size="11" font-family="sans" text-anchor="middle"><tspan x="698.4000000000001" dy="11">ROW1</tspan></text><text x="320.40000000000003" y="87.89999999999999" dominant-baseline="central" fill="black" font-size="11" font-family="sans" text-anchor="middle"><tspan x="320.40000000000003" dy="11">EC11</tspan><tspan x="320.40000000000003" dy="11">ENC1</tspan></text><text x="234.00000000000003" y="129.4" dominant-baseline="central" fill="black" font-size="11" font-family="sans" text-anchor="end"><tspan x="234.00000000000003" dy="11">ENC_A</tspan></text><text x="268.20000000000005" y="129.4" dominant-baseline="central" fill="black" font-size="11" font-family="sans" text-anchor="start"><tspan x="268.20000000000005" dy="11">A</tspan></text><text x="234.00000000000003" y="154.6" dominant-baseline="central" fill="black" font-size="11" font-family="sans" text-anchor="end"><tspan x="234.00000000000003" dy="11">GND</tspan></text><text x="268.20000000000005" y="154.6" dominant-baseline="central" fill="black" font-size="11" font-family="sans" text-anchor="start"><tspan x="268.20000000000005" dy="11">C</tspan></text><text x="234.00000000000003" y="179.79999999999998" dominant-baseline="central" fill="black" font-size="11" font-family="sans" text-anchor="end"><tspan x="234.00000000000003" dy="11">ENC_B</tspan></text><text x="268.20000000000005" y="179.79999999999998" dominant-baseline="central" fill="black" font-size="11" font-family="sans" text-anchor="start"><tspan x="268.20000000000005" dy="11">B</tspan></text><text x="414.0" y="129.4" dominant-baseline="central" fill="black" font-size="11" font-family="sans" text-anchor="start"><tspan x="414.0" dy="11">ENC_PUSH</tspan></text><text x="379.79999999999995" y="129.4" dominant-baseline="central" fill="black" font-size="11" font-family="sans" text-anchor="end"><tspan x="379.79999999999995" dy="11">S1</tspan></text><text x="414.0" y="165.4" dominant-baseline="central" fill="black" font-size="11" font-family="sans" text-anchor="start"><tspan x="414.0" dy="11">GND</tspan></text><text x="379.79999999999995" y="165.4" dominant-baseline="central" fill="black" font-size="11" font-family="sans" text-anchor="end"><tspan x="379.79999999999995" dy="11">S2</tspan></text><text x="381.59999999999997" y="274.90000000000003" dominant-baseline="central" fill="black" font-size="11" font-family="sans" text-anchor="middle"><tspan x="381.59999999999997" dy="11">0.91"</tspan><tspan x="381.59999999999997" dy="11">SSD1306</tspan><tspan x="381.59999999999997" dy="11">128x32</tspan><tspan x="381.59999999999997" dy="11">J3</tspan></text><text x="234.00000000000003" y="266.2" dominant-baseline="central" fill="black" font-size="11" font-family="sans" text-anchor="end"><tspan x="234.00000000000003" dy="11">GND</tspan></text><text x="268.20000000000005" y="266.2" dominant-baseline="central" fill="black" font-size="11" font-family="sans" text-anchor="start"><tspan x="268.20000000000005" dy="11">GND</tspan></text><text x="234.00000000000003" y="287.79999999999995" dominant-baseline="central" fill="black" font-size="11" font-family="sans" text-anchor="end"><tspan x="234.00000000000003" dy="11">+5V</tspan></text><text x="268.20000000000005" y="287.79999999999995" dominant-baseline="central" fill="black" font-size="11" font-family="sans" text-anchor="start"><tspan x="268.20000000000005" dy="11">VCC</tspan></text><text x="234.00000000000003" y="309.40000000000003" dominant-baseline="central" fill="black" font-size="11" font-family="sans" text-anchor="end"><tspan x="234.00000000000003" dy="11">I2C_SCL</tspan></text><text x="268.20000000000005" y="309.40000000000003" dominant-baseline="central" fill="black" font-size="11" font-family="sans" text-anchor="start"><tspan x="268.20000000000005" dy="11">SCL</tspan></text><text x="234.00000000000003" y="331.0" dominant-baseline="central" fill="black" font-size="11" font-family="sans" text-anchor="end"><tspan x="234.00000000000003" dy="11">I2C_SDA</tspan></text><text x="268.20000000000005" y="331.0" dominant-baseline="central" fill="black" font-size="11" font-family="sans" text-anchor="start"><tspan x="268.20000000000005" dy="11">SDA</tspan></text><text x="212.4" y="-187.4" dominant-baseline="central" fill="black" font-size="11" font-family="sans" text-anchor="middle"><tspan x="212.4" dy="11">Hackpad — 4-key + Encoder + OLED Macropad</tspan></text><text x="212.4" y="-169.4" dominant-baseline="central" fill="black" font-size="11" font-family="sans" text-anchor="middle"><tspan x="212.4" dy="11">Schematic v1.0 (XIAO RP2040, KMK firmware)</tspan></text><circle cx="288" cy="-54" r="2.7" style="stroke:black;fill:black;stroke-width:2.0;stroke-dasharray:-;" /><circle cx="288" cy="39.6" r="2.7" style="stroke:black;fill:black;stroke-width:2.0;stroke-dasharray:-;" /><circle cx="414" cy="-54" r="2.7" style="stroke:black;fill:black;stroke-width:2.0;stroke-dasharray:-;" /><circle cx="414" cy="39.6" r="2.7" style="stroke:black;fill:black;stroke-width:2.0;stroke-dasharray:-;" /><circle cx="522" cy="-104.4" r="2.7" style="stroke:black;fill:black;stroke-width:2.0;stroke-dasharray:-;" /><circle cx="648" cy="-104.4" r="2.7" style="stroke:black;fill:black;stroke-width:2.0;stroke-dasharray:-;" /><circle cx="522" cy="-10.8" r="2.7" style="stroke:black;fill:black;stroke-width:2.0;stroke-dasharray:-;" /><circle cx="648" cy="-10.8" r="2.7" style="stroke:black;fill:black;stroke-width:2.0;stroke-dasharray:-;" /></svg>