<svg xmlns="http://www.w3.org/2000/svg" xmlns:xlink="http://www.w3.org/1999/xlink" xml:lang="en" height="542.2pt" width="1075.574pt" viewBox="-100.408 -222.5 1075.574 542.2"><polygon points="461.7,-99 474.3,-90 461.7,-81 " style="stroke:black;fill:none;stroke-width:2.0;stroke-dasharray:-;stroke-linecap:round;stroke-linejoin:round;" /><polygon points="587.7,-99 600.3,-90 587.7,-81 " style="stroke:black;fill:none;stroke-width:2.0;stroke-dasharray:-;stroke-linecap:round;stroke-linejoin:round;" /><polygon points="713.7,-99 726.3,-90 713.7,-81 " style="stroke:black;fill:none;stroke-width:2.0;stroke-dasharray:-;stroke-linecap:round;stroke-linejoin:round;" /><polygon points="839.7,-99 852.3,-90 839.7,-81 " style="stroke:black;fill:none;stroke-width:2.0;stroke-dasharray:-;stroke-linecap:round;stroke-linejoin:round;" /><polygon points="461.7,-9 474.3,-0 461.7,9 " style="stroke:black;fill:none;stroke-width:2.0;stroke-dasharray:-;stroke-linecap:round;stroke-linejoin:round;" /><polygon points="587.7,-9 600.3,-0 587.7,9 " style="stroke:black;fill:none;stroke-width:2.0;stroke-dasharray:-;stroke-linecap:round;stroke-linejoin:round;" /><polygon points="713.7,-9 726.3,-0 713.7,9 " style="stroke:black;fill:none;stroke-width:2.0;stroke-dasharray:-;stroke-linecap:round;stroke-linejoin:round;" /><polygon points="839.7,-9 852.3,-0 839.7,9 " style="stroke:black;fill:none;stroke-width:2.0;stroke-dasharray:-;stroke-linecap:round;stroke-linejoin:round;" /><polygon points="461.7,81 474.3,90 461.7,99 " style="stroke:black;fill:none;stroke-width:2.0;stroke-dasharray:-;stroke-linecap:round;stroke-linejoin:round;" /><polygon points="587.7,81 600.3,90 587.7,99 " style="stroke:black;fill:none;stroke-width:2.0;stroke-dasharray:-;stroke-linecap:round;stroke-linejoin:round;" /><polygon points="713.7,81 726.3,90 713.7,99 " style="stroke:black;fill:none;stroke-width:2.0;stroke-dasharray:-;stroke-linecap:round;stroke-linejoin:round;" /><polygon points="839.7,81 852.3,90 839.7,99 " style="stroke:black;fill:none;stroke-width:2.0;stroke-dasharray:-;stroke-linecap:round;stroke-linejoin:round;" /><path d="M 0.0,-0.0 L 139.032,-0 L 139.032,-180 L 0,-180 L 0,-0" style="stroke:black;fill:none;stroke-width:2.0;stroke-dasharray:-;stroke-linecap:round;stroke-linejoin:round;" /><path d="M 0.0,-14.399999999999997 L -18,-14.4" style="stroke:black;fill:none;stroke-width:2.0;stroke-dasharray:-;stroke-linecap:round;stroke-linejoin:round;" /><path d="M 0.0,-39.599999999999994 L -18,-39.6" style="stroke:black;fill:none;stroke-width:2.0;stroke-dasharray:-;stroke-linecap:round;stroke-linejoin:round;" /><path d="M 0.0,-64.8 L -18,-64.8" style="stroke:black;fill:none;stroke-width:2.0;stroke-dasharray:-;stroke-linecap:round;stroke-linejoin:round;" /><path d="M 0.0,-89.99999999999999 L -18,-90" style="stroke:black;fill:none;stroke-width:2.0;stroke-dasharray:-;stroke-linecap:round;stroke-linejoin:round;" /><path d="M 0.0,-115.19999999999999 L -18,-115.2" style="stroke:black;fill:none;stroke-width:2.0;stroke-dasharray:-;stroke-linecap:round;stroke-linejoin:round;" /><path d="M 0.0,-140.4 L -18,-140.4" style="stroke:black;fill:none;stroke-width:2.0;stroke-dasharray:-;stroke-linecap:round;stroke-linejoin:round;" /><path d="M 0.0,-165.6 L -18,-165.6" style="stroke:black;fill:none;stroke-width:2.0;stroke-dasharray:-;stroke-linecap:round;stroke-linejoin:round;" /><path d="M 139.032,-14.399999999999997 L 157.032,-14.4" style="stroke:black;fill:none;stroke-width:2.0;stroke-dasharray:-;stroke-linecap:round;stroke-linejoin:round;" /><path d="M 139.032,-39.599999999999994 L 157.032,-39.6" style="stroke:black;fill:none;stroke-width:2.0;stroke-dasharray:-;stroke-linecap:round;stroke-linejoin:round;" /><path d="M 139.032,-64.8 L 157.032,-64.8" style="stroke:black;fill:none;stroke-width:2.0;stroke-dasharray:-;stroke-linecap:round;stroke-linejoin:round;" /><path d="M 139.032,-89.99999999999999 L 157.032,-90" style="stroke:black;fill:none;stroke-width:2.0;stroke-dasharray:-;stroke-linecap:round;stroke-linejoin:round;" /><path d="M 139.032,-115.19999999999999 L 157.032,-115.2" style="stroke:black;fill:none;stroke-width:2.0;stroke-dasharray:-;stroke-linecap:round;stroke-linejoin:round;" /><path d="M 139.032,-140.4 L 157.032,-140.4" style="stroke:black;fill:none;stroke-width:2.0;stroke-dasharray:-;stroke-linecap:round;stroke-linejoin:round;" /><path d="M 139.032,-165.6 L 157.032,-165.6" style="stroke:black;fill:none;stroke-width:2.0;stroke-dasharray:-;stroke-linecap:round;stroke-linejoin:round;" /><path d="M 157.032,-14.399999999999997 L 157.032,-28.8" style="stroke:black;fill:none;stroke-width:2.0;stroke-dasharray:-;stroke-linecap:round;stroke-linejoin:round;" /><path d="M 157.032,-28.799999999999997 L 150.282,-28.8" style="stroke:black;fill:none;stroke-width:2.0;stroke-dasharray:-;stroke-linecap:round;stroke-linejoin:round;" /><path d="M 157.032,-28.799999999999997 L 163.782,-28.8" style="stroke:black;fill:none;stroke-width:2.0;stroke-dasharray:-;stroke-linecap:round;stroke-linejoin:round;" /><path d="M 157.032,-39.599999999999994 L 157.032,-54" style="stroke:black;fill:none;stroke-width:2.0;stroke-dasharray:-;stroke-linecap:round;stroke-linejoin:round;" /><path d="M 157.032,-54.0 L 150.282,-54" style="stroke:black;fill:none;stroke-width:2.0;stroke-dasharray:-;stroke-linecap:round;stroke-linejoin:round;" /><path d="M 157.032,-54.0 L 163.782,-54" style="stroke:black;fill:none;stroke-width:2.0;stroke-dasharray:-;stroke-linecap:round;stroke-linejoin:round;" /><path d="M 157.032,-64.8 L 157.032,-50.4 L 148.032,-50.4 L 166.032,-50.4 M 150.732,-46.08 L 163.332,-46.08 M 155.232,-41.76 L 158.832,-41.76" style="stroke:black;fill:none;stroke-width:2.0;stroke-dasharray:-;stroke-linecap:round;stroke-linejoin:round;" /><path d="M -18.0,-14.399999999999997 L -32.4,-14.4 L -46.8,-14.4" style="stroke:black;fill:none;stroke-width:2.0;stroke-dasharray:-;stroke-linecap:round;stroke-linejoin:round;" /><path d="M -18.0,-39.599999999999994 L -32.4,-39.6 L -46.8,-39.6" style="stroke:black;fill:none;stroke-width:2.0;stroke-dasharray:-;stroke-linecap:round;stroke-linejoin:round;" /><path d="M -18.0,-64.8 L -32.4,-64.8 L -46.8,-64.8" style="stroke:black;fill:none;stroke-width:2.0;stroke-dasharray:-;stroke-linecap:round;stroke-linejoin:round;" /><path d="M -18.0,-89.99999999999999 L -32.4,-90 L -46.8,-90" style="stroke:black;fill:none;stroke-width:2.0;stroke-dasharray:-;stroke-linecap:round;stroke-linejoin:round;" /><path d="M -18.0,-115.19999999999999 L -32.4,-115.2 L -46.8,-115.2" style="stroke:black;fill:none;stroke-width:2.0;stroke-dasharray:-;stroke-linecap:round;stroke-linejoin:round;" /><path d="M -18.0,-140.4 L -32.4,-140.4 L -46.8,-140.4" style="stroke:black;fill:none;stroke-width:2.0;stroke-dasharray:-;stroke-linecap:round;stroke-linejoin:round;" /><path d="M -18.0,-165.6 L -32.4,-165.6 L -46.8,-165.6" style="stroke:black;fill:none;stroke-width:2.0;stroke-dasharray:-;stroke-linecap:round;stroke-linejoin:round;" /><path d="M 157.032,-89.99999999999999 L 171.432,-90 L 185.832,-90" style="stroke:black;fill:none;stroke-width:2.0;stroke-dasharray:-;stroke-linecap:round;stroke-linejoin:round;" /><path d="M 157.032,-115.19999999999999 L 171.432,-115.2 L 185.832,-115.2" style="stroke:black;fill:none;stroke-width:2.0;stroke-dasharray:-;stroke-linecap:round;stroke-linejoin:round;" /><path d="M 157.032,-140.4 L 171.432,-140.4 L 185.832,-140.4" style="stroke:black;fill:none;stroke-width:2.0;stroke-dasharray:-;stroke-linecap:round;stroke-linejoin:round;" /><path d="M 157.032,-165.6 L 171.432,-165.6 L 185.832,-165.6" style="stroke:black;fill:none;stroke-width:2.0;stroke-dasharray:-;stroke-linecap:round;stroke-linejoin:round;" /><path d="M 306.0,-90.0 L 342,-90 M 350.64,-93.6 L 370.8,-106.2 M 378,-90 L 414,-90" style="stroke:black;fill:none;stroke-width:2.0;stroke-dasharray:-;stroke-linecap:round;stroke-linejoin:round;" /><path d="M 414.0,-90.0 L 461.7,-90 M 474.3,-99 L 474.3,-81 M 474.3,-90 L 522,-90" style="stroke:black;fill:none;stroke-width:2.0;stroke-dasharray:-;stroke-linecap:round;stroke-linejoin:round;" /><path d="M 432.0,-90.0 L 468,-90 M 476.64,-93.6 L 496.8,-106.2 M 504,-90 L 540,-90" style="stroke:black;fill:none;stroke-width:2.0;stroke-dasharray:-;stroke-linecap:round;stroke-linejoin:round;" /><path d="M 540.0,-90.0 L 587.7,-90 M 600.3,-99 L 600.3,-81 M 600.3,-90 L 648,-90" style="stroke:black;fill:none;stroke-width:2.0;stroke-dasharray:-;stroke-linecap:round;stroke-linejoin:round;" /><path d="M 558.0,-90.0 L 594,-90 M 602.64,-93.6 L 622.8,-106.2 M 630,-90 L 666,-90" style="stroke:black;fill:none;stroke-width:2.0;stroke-dasharray:-;stroke-linecap:round;stroke-linejoin:round;" /><path d="M 666.0,-90.0 L 713.7,-90 M 726.3,-99 L 726.3,-81 M 726.3,-90 L 774,-90" style="stroke:black;fill:none;stroke-width:2.0;stroke-dasharray:-;stroke-linecap:round;stroke-linejoin:round;" /><path d="M 684.0,-90.0 L 720,-90 M 728.64,-93.6 L 748.8,-106.2 M 756,-90 L 792,-90" style="stroke:black;fill:none;stroke-width:2.0;stroke-dasharray:-;stroke-linecap:round;stroke-linejoin:round;" /><path d="M 792.0,-90.0 L 839.7,-90 M 852.3,-99 L 852.3,-81 M 852.3,-90 L 900,-90" style="stroke:black;fill:none;stroke-width:2.0;stroke-dasharray:-;stroke-linecap:round;stroke-linejoin:round;" /><path d="M 306.0,-0.0 L 342,-0 M 350.64,-3.6 L 370.8,-16.2 M 378,-0 L 414,-0" style="stroke:black;fill:none;stroke-width:2.0;stroke-dasharray:-;stroke-linecap:round;stroke-linejoin:round;" /><path d="M 414.0,-0.0 L 461.7,-0 M 474.3,-9 L 474.3,9 M 474.3,-0 L 522,-0" style="stroke:black;fill:none;stroke-width:2.0;stroke-dasharray:-;stroke-linecap:round;stroke-linejoin:round;" /><path d="M 432.0,-0.0 L 468,-0 M 476.64,-3.6 L 496.8,-16.2 M 504,-0 L 540,-0" style="stroke:black;fill:none;stroke-width:2.0;stroke-dasharray:-;stroke-linecap:round;stroke-linejoin:round;" /><path d="M 540.0,-0.0 L 587.7,-0 M 600.3,-9 L 600.3,9 M 600.3,-0 L 648,-0" style="stroke:black;fill:none;stroke-width:2.0;stroke-dasharray:-;stroke-linecap:round;stroke-linejoin:round;" /><path d="M 558.0,-0.0 L 594,-0 M 602.64,-3.6 L 622.8,-16.2 M 630,-0 L 666,-0" style="stroke:black;fill:none;stroke-width:2.0;stroke-dasharray:-;stroke-linecap:round;stroke-linejoin:round;" /><path d="M 666.0,-0.0 L 713.7,-0 M 726.3,-9 L 726.3,9 M 726.3,-0 L 774,-0" style="stroke:black;fill:none;stroke-width:2.0;stroke-dasharray:-;stroke-linecap:round;stroke-linejoin:round;" /><path d="M 684.0,-0.0 L 720,-0 M 728.64,-3.6 L 748.8,-16.2 M 756,-0 L 792,-0" style="stroke:black;fill:none;stroke-width:2.0;stroke-dasharray:-;stroke-linecap:round;stroke-linejoin:round;" /><path d="M 792.0,-0.0 L 839.7,-0 M 852.3,-9 L 852.3,9 M 852.3,-0 L 900,-0" style="stroke:black;fill:none;stroke-width:2.0;stroke-dasharray:-;stroke-linecap:round;stroke-linejoin:round;" /><path d="M 306.0,90.0 L 342,90 M 350.64,86.4 L 370.8,73.8 M 378,90 L 414,90" style="stroke:black;fill:none;stroke-width:2.0;stroke-dasharray:-;stroke-linecap:round;stroke-linejoin:round;" /><path d="M 414.0,90.0 L 461.7,90 M 474.3,81 L 474.3,99 M 474.3,90 L 522,90" style="stroke:black;fill:none;stroke-width:2.0;stroke-dasharray:-;stroke-linecap:round;stroke-linejoin:round;" /><path d="M 432.0,90.0 L 468,90 M 476.64,86.4 L 496.8,73.8 M 504,90 L 540,90" style="stroke:black;fill:none;stroke-width:2.0;stroke-dasharray:-;stroke-linecap:round;stroke-linejoin:round;" /><path d="M 540.0,90.0 L 587.7,90 M 600.3,81 L 600.3,99 M 600.3,90 L 648,90" style="stroke:black;fill:none;stroke-width:2.0;stroke-dasharray:-;stroke-linecap:round;stroke-linejoin:round;" /><path d="M 558.0,90.0 L 594,90 M 602.64,86.4 L 622.8,73.8 M 630,90 L 666,90" style="stroke:black;fill:none;stroke-width:2.0;stroke-dasharray:-;stroke-linecap:round;stroke-linejoin:round;" /><path d="M 666.0,90.0 L 713.7,90 M 726.3,81 L 726.3,99 M 726.3,90 L 774,90" style="stroke:black;fill:none;stroke-width:2.0;stroke-dasharray:-;stroke-linecap:round;stroke-linejoin:round;" /><path d="M 684.0,90.0 L 720,90 M 728.64,86.4 L 748.8,73.8 M 756,90 L 792,90" style="stroke:black;fill:none;stroke-width:2.0;stroke-dasharray:-;stroke-linecap:round;stroke-linejoin:round;" /><path d="M 792.0,90.0 L 839.7,90 M 852.3,81 L 852.3,99 M 852.3,90 L 900,90" style="stroke:black;fill:none;stroke-width:2.0;stroke-dasharray:-;stroke-linecap:round;stroke-linejoin:round;" /><path d="M 288.0,-126.0 L 288,-9 L 288,108" style="stroke:black;fill:none;stroke-width:2.0;stroke-dasharray:-;stroke-linecap:round;stroke-linejoin:round;" /><path d="M 306.0,-90.0 L 297,-90 L 288,-90" style="stroke:black;fill:none;stroke-width:2.0;stroke-dasharray:-;stroke-linecap:round;stroke-linejoin:round;" /><path d="M 306.0,-0.0 L 297,-0 L 288,-0" style="stroke:black;fill:none;stroke-width:2.0;stroke-dasharray:-;stroke-linecap:round;stroke-linejoin:round;" /><path d="M 306.0,90.0 L 297,90 L 288,90" style="stroke:black;fill:none;stroke-width:2.0;stroke-dasharray:-;stroke-linecap:round;stroke-linejoin:round;" /><path d="M 414.0,-126.0 L 414,-9 L 414,108" style="stroke:black;fill:none;stroke-width:2.0;stroke-dasharray:-;stroke-linecap:round;stroke-linejoin:round;" /><path d="M 432.0,-90.0 L 423,-90 L 414,-90" style="stroke:black;fill:none;stroke-width:2.0;stroke-dasharray:-;stroke-linecap:round;stroke-linejoin:round;" /><path d="M 432.0,-0.0 L 423,-0 L 414,-0" style="stroke:black;fill:none;stroke-width:2.0;stroke-dasharray:-;stroke-linecap:round;stroke-linejoin:round;" /><path d="M 432.0,90.0 L 423,90 L 414,90" style="stroke:black;fill:none;stroke-width:2.0;stroke-dasharray:-;stroke-linecap:round;stroke-linejoin:round;" /><path d="M 540.0,-126.0 L 540,-9 L 540,108" style="stroke:black;fill:none;stroke-width:2.0;stroke-dasharray:-;stroke-linecap:round;stroke-linejoin:round;" /><path d="M 558.0,-90.0 L 549,-90 L 540,-90" style="stroke:black;fill:none;stroke-width:2.0;stroke-dasharray:-;stroke-linecap:round;stroke-linejoin:round;" /><path d="M 558.0,-0.0 L 549,-0 L 540,-0" style="stroke:black;fill:none;stroke-width:2.0;stroke-dasharray:-;stroke-linecap:round;stroke-linejoin:round;" /><path d="M 558.0,90.0 L 549,90 L 540,90" style="stroke:black;fill:none;stroke-width:2.0;stroke-dasharray:-;stroke-linecap:round;stroke-linejoin:round;" /><path d="M 666.0,-126.0 L 666,-9 L 666,108" style="stroke:black;fill:none;stroke-width:2.0;stroke-dasharray:-;stroke-linecap:round;stroke-linejoin:round;" /><path d="M 684.0,-90.0 L 675,-90 L 666,-90" style="stroke:black;fill:none;stroke-width:2.0;stroke-dasharray:-;stroke-linecap:round;stroke-linejoin:round;" /><path d="M 684.0,-0.0 L 675,-0 L 666,-0" style="stroke:black;fill:none;stroke-width:2.0;stroke-dasharray:-;stroke-linecap:round;stroke-linejoin:round;" /><path d="M 684.0,90.0 L 675,90 L 666,90" style="stroke:black;fill:none;stroke-width:2.0;stroke-dasharray:-;stroke-linecap:round;stroke-linejoin:round;" /><path d="M 507.59999999999997,-140.4 L 718.2,-140.4 L 928.8,-140.4" style="stroke:black;fill:none;stroke-width:2.0;stroke-dasharray:-;stroke-linecap:round;stroke-linejoin:round;" /><path d="M 522.0,-90.0 L 522,-115.2 L 522,-140.4" style="stroke:black;fill:none;stroke-width:2.0;stroke-dasharray:-;stroke-linecap:round;stroke-linejoin:round;" /><path d="M 648.0,-90.0 L 648,-115.2 L 648,-140.4" style="stroke:black;fill:none;stroke-width:2.0;stroke-dasharray:-;stroke-linecap:round;stroke-linejoin:round;" /><path d="M 774.0,-90.0 L 774,-115.2 L 774,-140.4" style="stroke:black;fill:none;stroke-width:2.0;stroke-dasharray:-;stroke-linecap:round;stroke-linejoin:round;" /><path d="M 900.0,-90.0 L 900,-115.2 L 900,-140.4" style="stroke:black;fill:none;stroke-width:2.0;stroke-dasharray:-;stroke-linecap:round;stroke-linejoin:round;" /><path d="M 507.59999999999997,-50.4 L 718.2,-50.4 L 928.8,-50.4" style="stroke:black;fill:none;stroke-width:2.0;stroke-dasharray:-;stroke-linecap:round;stroke-linejoin:round;" /><path d="M 522.0,-0.0 L 522,-25.2 L 522,-50.4" style="stroke:black;fill:none;stroke-width:2.0;stroke-dasharray:-;stroke-linecap:round;stroke-linejoin:round;" /><path d="M 648.0,-0.0 L 648,-25.2 L 648,-50.4" style="stroke:black;fill:none;stroke-width:2.0;stroke-dasharray:-;stroke-linecap:round;stroke-linejoin:round;" /><path d="M 774.0,-0.0 L 774,-25.2 L 774,-50.4" style="stroke:black;fill:none;stroke-width:2.0;stroke-dasharray:-;stroke-linecap:round;stroke-linejoin:round;" /><path d="M 900.0,-0.0 L 900,-25.2 L 900,-50.4" style="stroke:black;fill:none;stroke-width:2.0;stroke-dasharray:-;stroke-linecap:round;stroke-linejoin:round;" /><path d="M 507.59999999999997,39.6 L 718.2,39.6 L 928.8,39.6" style="stroke:black;fill:none;stroke-width:2.0;stroke-dasharray:-;stroke-linecap:round;stroke-linejoin:round;" /><path d="M 522.0,90.0 L 522,64.8 L 522,39.6" style="stroke:black;fill:none;stroke-width:2.0;stroke-dasharray:-;stroke-linecap:round;stroke-linejoin:round;" /><path d="M 648.0,90.0 L 648,64.8 L 648,39.6" style="stroke:black;fill:none;stroke-width:2.0;stroke-dasharray:-;stroke-linecap:round;stroke-linejoin:round;" /><path d="M 774.0,90.0 L 774,64.8 L 774,39.6" style="stroke:black;fill:none;stroke-width:2.0;stroke-dasharray:-;stroke-linecap:round;stroke-linejoin:round;" /><path d="M 900.0,90.0 L 900,64.8 L 900,39.6" style="stroke:black;fill:none;stroke-width:2.0;stroke-dasharray:-;stroke-linecap:round;stroke-linejoin:round;" /><path d="M 396.0,270.0 L 396,234 L 387,234 L 387,198 L 405,198 L 405,234 L 396,234 M 396,198 L 396,162" style="stroke:black;fill:none;stroke-width:2.0;stroke-dasharray:-;stroke-linecap:round;stroke-linejoin:round;" /><path d="M 338.40000000000003,252.0 L 324,252 L 309.6,252" style="stroke:black;fill:none;stroke-width:2.0;stroke-dasharray:-;stroke-linecap:round;stroke-linejoin:round;" /><path d="M 338.40000000000003,270.0 L 324,270 L 309.6,270" style="stroke:black;fill:none;stroke-width:2.0;stroke-dasharray:-;stroke-linecap:round;stroke-linejoin:round;" /><path d="M 338.40000000000003,288.0 L 324,288 L 309.6,288" style="stroke:black;fill:none;stroke-width:2.0;stroke-dasharray:-;stroke-linecap:round;stroke-linejoin:round;" /><path d="M 594.0,270.0 L 558,270 L 558,279 L 522,279 L 522,261 L 558,261 L 558,270 M 522,270 L 486,270" style="stroke:black;fill:none;stroke-width:2.0;stroke-dasharray:-;stroke-linecap:round;stroke-linejoin:round;" /><path d="M 536.4,234.0 L 522,234 L 507.6,234" style="stroke:black;fill:none;stroke-width:2.0;stroke-dasharray:-;stroke-linecap:round;stroke-linejoin:round;" /><path d="M 536.4,257.40000000000003 L 522,257.4 L 507.6,257.4" style="stroke:black;fill:none;stroke-width:2.0;stroke-dasharray:-;stroke-linecap:round;stroke-linejoin:round;" /><path d="M 536.4,282.59999999999997 L 522,282.6 L 507.6,282.6" style="stroke:black;fill:none;stroke-width:2.0;stroke-dasharray:-;stroke-linecap:round;stroke-linejoin:round;" /><path d="M 536.4,306.0 L 522,306 L 507.6,306" style="stroke:black;fill:none;stroke-width:2.0;stroke-dasharray:-;stroke-linecap:round;stroke-linejoin:round;" /><text x="-2.6999999999999997" y="-28.099999999999998" dominant-baseline="ideographic" fill="black" font-size="11" font-family="sans" text-anchor="end"><tspan x="-2.6999999999999997" dy="11">1</tspan></text><text x="5.3999999999999995" y="-28.4" dominant-baseline="central" fill="black" font-size="14" font-family="sans" text-anchor="start"><tspan x="5.3999999999999995" dy="14">D0/GP26</tspan></text><text x="-2.6999999999999997" y="-53.3" dominant-baseline="ideographic" fill="black" font-size="11" font-family="sans" text-anchor="end"><tspan x="-2.6999999999999997" dy="11">2</tspan></text><text x="5.3999999999999995" y="-53.599999999999994" dominant-baseline="central" fill="black" font-size="14" font-family="sans" text-anchor="start"><tspan x="5.3999999999999995" dy="14">D1/GP27</tspan></text><text x="-2.6999999999999997" y="-78.49999999999999" dominant-baseline="ideographic" fill="black" font-size="11" font-family="sans" text-anchor="end"><tspan x="-2.6999999999999997" dy="11">3</tspan></text><text x="5.3999999999999995" y="-78.8" dominant-baseline="central" fill="black" font-size="14" font-family="sans" text-anchor="start"><tspan x="5.3999999999999995" dy="14">D2/GP28</tspan></text><text x="-2.6999999999999997" y="-103.69999999999999" dominant-baseline="ideographic" fill="black" font-size="11" font-family="sans" text-anchor="end"><tspan x="-2.6999999999999997" dy="11">4</tspan></text><text x="5.3999999999999995" y="-103.99999999999999" dominant-baseline="central" fill="black" font-size="14" font-family="sans" text-anchor="start"><tspan x="5.3999999999999995" dy="14">D3/GP29</tspan></text><text x="-2.6999999999999997" y="-128.89999999999998" dominant-baseline="ideographic" fill="black" font-size="11" font-family="sans" text-anchor="end"><tspan x="-2.6999999999999997" dy="11">5</tspan></text><text x="5.3999999999999995" y="-129.2" dominant-baseline="central" fill="black" font-size="14" font-family="sans" text-anchor="start"><tspan x="5.3999999999999995" dy="14">D4/GP6</tspan></text><text x="-2.6999999999999997" y="-154.1" dominant-baseline="ideographic" fill="black" font-size="11" font-family="sans" text-anchor="end"><tspan x="-2.6999999999999997" dy="11">6</tspan></text><text x="5.3999999999999995" y="-154.4" dominant-baseline="central" fill="black" font-size="14" font-family="sans" text-anchor="start"><tspan x="5.3999999999999995" dy="14">D5/GP7</tspan></text><text x="-2.6999999999999997" y="-179.29999999999998" dominant-baseline="ideographic" fill="black" font-size="11" font-family="sans" text-anchor="end"><tspan x="-2.6999999999999997" dy="11">7</tspan></text><text x="5.3999999999999995" y="-179.6" dominant-baseline="central" fill="black" font-size="14" font-family="sans" text-anchor="start"><tspan x="5.3999999999999995" dy="14">D6/GP0</tspan></text><text x="141.73200000000003" y="-28.099999999999998" dominant-baseline="ideographic" fill="black" font-size="11" font-family="sans" text-anchor="start"><tspan x="141.73200000000003" dy="11">14</tspan></text><text x="133.63200000000003" y="-28.4" dominant-baseline="central" fill="black" font-size="14" font-family="sans" text-anchor="end"><tspan x="133.63200000000003" dy="14">5V</tspan></text><text x="141.73200000000003" y="-53.3" dominant-baseline="ideographic" fill="black" font-size="11" font-family="sans" text-anchor="start"><tspan x="141.73200000000003" dy="11">13</tspan></text><text x="133.63200000000003" y="-53.599999999999994" dominant-baseline="central" fill="black" font-size="14" font-family="sans" text-anchor="end"><tspan x="133.63200000000003" dy="14">3V3</tspan></text><text x="141.73200000000003" y="-78.49999999999999" dominant-baseline="ideographic" fill="black" font-size="11" font-family="sans" text-anchor="start"><tspan x="141.73200000000003" dy="11">12</tspan></text><text x="133.63200000000003" y="-78.8" dominant-baseline="central" fill="black" font-size="14" font-family="sans" text-anchor="end"><tspan x="133.63200000000003" dy="14">GND</tspan></text><text x="141.73200000000003" y="-103.69999999999999" dominant-baseline="ideographic" fill="black" font-size="11" font-family="sans" text-anchor="start"><tspan x="141.73200000000003" dy="11">11</tspan></text><text x="133.63200000000003" y="-103.99999999999999" dominant-baseline="central" fill="black" font-size="14" font-family="sans" text-anchor="end"><tspan x="133.63200000000003" dy="14">D7/GP1</tspan></text><text x="141.73200000000003" y="-128.89999999999998" dominant-baseline="ideographic" fill="black" font-size="11" font-family="sans" text-anchor="start"><tspan x="141.73200000000003" dy="11">10</tspan></text><text x="133.63200000000003" y="-129.2" dominant-baseline="central" fill="black" font-size="14" font-family="sans" text-anchor="end"><tspan x="133.63200000000003" dy="14">D8/GP2</tspan></text><text x="141.73200000000003" y="-154.1" dominant-baseline="ideographic" fill="black" font-size="11" font-family="sans" text-anchor="start"><tspan x="141.73200000000003" dy="11">9</tspan></text><text x="133.63200000000003" y="-154.4" dominant-baseline="central" fill="black" font-size="14" font-family="sans" text-anchor="end"><tspan x="133.63200000000003" dy="14">D9/GP4</tspan></text><text x="141.73200000000003" y="-179.29999999999998" dominant-baseline="ideographic" fill="black" font-size="11" font-family="sans" text-anchor="start"><tspan x="141.73200000000003" dy="11">8</tspan></text><text x="133.63200000000003" y="-179.6" dominant-baseline="central" fill="black" font-size="14" font-family="sans" text-anchor="end"><tspan x="133.63200000000003" dy="14">D10/GP3</tspan></text><text x="73.116" y="-115.6" dominant-baseline="central" fill="black" font-size="11" font-family="sans" text-anchor="middle"><tspan x="73.116" dy="11">XIAO</tspan><tspan x="73.116" dy="11">RP2040</tspan><tspan x="73.116" dy="11">U1</tspan></text><text x="167.382" y="-32.599999999999994" dominant-baseline="central" fill="black" font-size="11" font-family="sans" text-anchor="start"><tspan x="167.382" dy="11">+5V</tspan></text><text x="167.382" y="-57.8" dominant-baseline="central" fill="black" font-size="11" font-family="sans" text-anchor="start"><tspan x="167.382" dy="11">+3V3</tspan></text><text x="-50.4" y="-25.4" dominant-baseline="central" fill="black" font-size="11" font-family="sans" text-anchor="end"><tspan x="-50.4" dy="11">COL0</tspan></text><text x="-50.4" y="-50.599999999999994" dominant-baseline="central" fill="black" font-size="11" font-family="sans" text-anchor="end"><tspan x="-50.4" dy="11">COL1</tspan></text><text x="-50.4" y="-75.8" dominant-baseline="central" fill="black" font-size="11" font-family="sans" text-anchor="end"><tspan x="-50.4" dy="11">COL2</tspan></text><text x="-50.4" y="-100.99999999999999" dominant-baseline="central" fill="black" font-size="11" font-family="sans" text-anchor="end"><tspan x="-50.4" dy="11">COL3</tspan></text><text x="-50.4" y="-126.19999999999999" dominant-baseline="central" fill="black" font-size="11" font-family="sans" text-anchor="end"><tspan x="-50.4" dy="11">I2C_SDA</tspan></text><text x="-50.4" y="-151.4" dominant-baseline="central" fill="black" font-size="11" font-family="sans" text-anchor="end"><tspan x="-50.4" dy="11">I2C_SCL</tspan></text><text x="-50.4" y="-176.6" dominant-baseline="central" fill="black" font-size="11" font-family="sans" text-anchor="end"><tspan x="-50.4" dy="11">ROW0</tspan></text><text x="189.43200000000002" y="-100.99999999999999" dominant-baseline="central" fill="black" font-size="11" font-family="sans" text-anchor="start"><tspan x="189.43200000000002" dy="11">ROW1</tspan></text><text x="189.43200000000002" y="-126.19999999999999" dominant-baseline="central" fill="black" font-size="11" font-family="sans" text-anchor="start"><tspan x="189.43200000000002" dy="11">ROW2</tspan></text><text x="189.43200000000002" y="-151.4" dominant-baseline="central" fill="black" font-size="11" font-family="sans" text-anchor="start"><tspan x="189.43200000000002" dy="11">ENC_A</tspan></text><text x="189.43200000000002" y="-176.6" dominant-baseline="central" fill="black" font-size="11" font-family="sans" text-anchor="start"><tspan x="189.43200000000002" dy="11">ENC_B</tspan></text><circle cx="346.32" cy="-90" r="4.32" style="stroke:black;fill:white;stroke-width:2.0;stroke-dasharray:-;" /><circle cx="373.68" cy="-90" r="4.32" style="stroke:black;fill:white;stroke-width:2.0;stroke-dasharray:-;" /><text x="360.0" y="-120.8" dominant-baseline="ideographic" fill="black" font-size="11" font-family="sans" text-anchor="middle"><tspan x="360.0" dy="11">SW1</tspan></text><text x="468.0" y="-113.60000000000001" dominant-baseline="ideographic" fill="black" font-size="11" font-family="sans" text-anchor="middle"><tspan x="468.0" dy="11">D1</tspan></text><circle cx="472.32" cy="-90" r="4.32" style="stroke:black;fill:white;stroke-width:2.0;stroke-dasharray:-;" /><circle cx="499.68" cy="-90" r="4.32" style="stroke:black;fill:white;stroke-width:2.0;stroke-dasharray:-;" /><text x="486.0" y="-120.8" dominant-baseline="ideographic" fill="black" font-size="11" font-family="sans" text-anchor="middle"><tspan x="486.0" dy="11">SW2</tspan></text><text x="594.0" y="-113.60000000000001" dominant-baseline="ideographic" fill="black" font-size="11" font-family="sans" text-anchor="middle"><tspan x="594.0" dy="11">D2</tspan></text><circle cx="598.32" cy="-90" r="4.32" style="stroke:black;fill:white;stroke-width:2.0;stroke-dasharray:-;" /><circle cx="625.68" cy="-90" r="4.32" style="stroke:black;fill:white;stroke-width:2.0;stroke-dasharray:-;" /><text x="612.0" y="-120.8" dominant-baseline="ideographic" fill="black" font-size="11" font-family="sans" text-anchor="middle"><tspan x="612.0" dy="11">SW3</tspan></text><text x="720.0" y="-113.60000000000001" dominant-baseline="ideographic" fill="black" font-size="11" font-family="sans" text-anchor="middle"><tspan x="720.0" dy="11">D3</tspan></text><circle cx="724.32" cy="-90" r="4.32" style="stroke:black;fill:white;stroke-width:2.0;stroke-dasharray:-;" /><circle cx="751.68" cy="-90" r="4.32" style="stroke:black;fill:white;stroke-width:2.0;stroke-dasharray:-;" /><text x="738.0" y="-120.8" dominant-baseline="ideographic" fill="black" font-size="11" font-family="sans" text-anchor="middle"><tspan x="738.0" dy="11">SW4</tspan></text><text x="846.0" y="-113.60000000000001" dominant-baseline="ideographic" fill="black" font-size="11" font-family="sans" text-anchor="middle"><tspan x="846.0" dy="11">D4</tspan></text><circle cx="346.32" cy="-0" r="4.32" style="stroke:black;fill:white;stroke-width:2.0;stroke-dasharray:-;" /><circle cx="373.68" cy="-0" r="4.32" style="stroke:black;fill:white;stroke-width:2.0;stroke-dasharray:-;" /><text x="360.0" y="-30.8" dominant-baseline="ideographic" fill="black" font-size="11" font-family="sans" text-anchor="middle"><tspan x="360.0" dy="11">SW5</tspan></text><text x="468.0" y="-23.6" dominant-baseline="ideographic" fill="black" font-size="11" font-family="sans" text-anchor="middle"><tspan x="468.0" dy="11">D5</tspan></text><circle cx="472.32" cy="-0" r="4.32" style="stroke:black;fill:white;stroke-width:2.0;stroke-dasharray:-;" /><circle cx="499.68" cy="-0" r="4.32" style="stroke:black;fill:white;stroke-width:2.0;stroke-dasharray:-;" /><text x="486.0" y="-30.8" dominant-baseline="ideographic" fill="black" font-size="11" font-family="sans" text-anchor="middle"><tspan x="486.0" dy="11">SW6</tspan></text><text x="594.0" y="-23.6" dominant-baseline="ideographic" fill="black" font-size="11" font-family="sans" text-anchor="middle"><tspan x="594.0" dy="11">D6</tspan></text><circle cx="598.32" cy="-0" r="4.32" style="stroke:black;fill:white;stroke-width:2.0;stroke-dasharray:-;" /><circle cx="625.68" cy="-0" r="4.32" style="stroke:black;fill:white;stroke-width:2.0;stroke-dasharray:-;" /><text x="612.0" y="-30.8" dominant-baseline="ideographic" fill="black" font-size="11" font-family="sans" text-anchor="middle"><tspan x="612.0" dy="11">SW7</tspan></text><text x="720.0" y="-23.6" dominant-baseline="ideographic" fill="black" font-size="11" font-family="sans" text-anchor="middle"><tspan x="720.0" dy="11">D7</tspan></text><circle cx="724.32" cy="-0" r="4.32" style="stroke:black;fill:white;stroke-width:2.0;stroke-dasharray:-;" /><circle cx="751.68" cy="-0" r="4.32" style="stroke:black;fill:white;stroke-width:2.0;stroke-dasharray:-;" /><text x="738.0" y="-30.8" dominant-baseline="ideographic" fill="black" font-size="11" font-family="sans" text-anchor="middle"><tspan x="738.0" dy="11">SW8</tspan></text><text x="846.0" y="-23.6" dominant-baseline="ideographic" fill="black" font-size="11" font-family="sans" text-anchor="middle"><tspan x="846.0" dy="11">D8</tspan></text><circle cx="346.32" cy="90" r="4.32" style="stroke:black;fill:white;stroke-width:2.0;stroke-dasharray:-;" /><circle cx="373.68" cy="90" r="4.32" style="stroke:black;fill:white;stroke-width:2.0;stroke-dasharray:-;" /><text x="360.0" y="59.2" dominant-baseline="ideographic" fill="black" font-size="11" font-family="sans" text-anchor="middle"><tspan x="360.0" dy="11">SW9</tspan></text><text x="468.0" y="66.39999999999999" dominant-baseline="ideographic" fill="black" font-size="11" font-family="sans" text-anchor="middle"><tspan x="468.0" dy="11">D9</tspan></text><circle cx="472.32" cy="90" r="4.32" style="stroke:black;fill:white;stroke-width:2.0;stroke-dasharray:-;" /><circle cx="499.68" cy="90" r="4.32" style="stroke:black;fill:white;stroke-width:2.0;stroke-dasharray:-;" /><text x="486.0" y="59.2" dominant-baseline="ideographic" fill="black" font-size="11" font-family="sans" text-anchor="middle"><tspan x="486.0" dy="11">SW10</tspan></text><text x="594.0" y="66.39999999999999" dominant-baseline="ideographic" fill="black" font-size="11" font-family="sans" text-anchor="middle"><tspan x="594.0" dy="11">D10</tspan></text><circle cx="598.32" cy="90" r="4.32" style="stroke:black;fill:white;stroke-width:2.0;stroke-dasharray:-;" /><circle cx="625.68" cy="90" r="4.32" style="stroke:black;fill:white;stroke-width:2.0;stroke-dasharray:-;" /><text x="612.0" y="59.2" dominant-baseline="ideographic" fill="black" font-size="11" font-family="sans" text-anchor="middle"><tspan x="612.0" dy="11">SW11</tspan></text><text x="720.0" y="66.39999999999999" dominant-baseline="ideographic" fill="black" font-size="11" font-family="sans" text-anchor="middle"><tspan x="720.0" dy="11">D11</tspan></text><circle cx="724.32" cy="90" r="4.32" style="stroke:black;fill:white;stroke-width:2.0;stroke-dasharray:-;" /><circle cx="751.68" cy="90" r="4.32" style="stroke:black;fill:white;stroke-width:2.0;stroke-dasharray:-;" /><text x="738.0" y="59.2" dominant-baseline="ideographic" fill="black" font-size="11" font-family="sans" text-anchor="middle"><tspan x="738.0" dy="11">SW12</tspan></text><text x="846.0" y="66.39999999999999" dominant-baseline="ideographic" fill="black" font-size="11" font-family="sans" text-anchor="middle"><tspan x="846.0" dy="11">D12</tspan></text><text x="291.59999999999997" y="-144.2" dominant-baseline="central" fill="black" font-size="11" font-family="sans" text-anchor="middle"><tspan x="291.59999999999997" dy="11">COL0</tspan></text><text x="417.59999999999997" y="-144.2" dominant-baseline="central" fill="black" font-size="11" font-family="sans" text-anchor="middle"><tspan x="417.59999999999997" dy="11">COL1</tspan></text><text x="543.6" y="-144.2" dominant-baseline="central" fill="black" font-size="11" font-family="sans" text-anchor="middle"><tspan x="543.6" dy="11">COL2</tspan></text><text x="669.6" y="-144.2" dominant-baseline="central" fill="black" font-size="11" font-family="sans" text-anchor="middle"><tspan x="669.6" dy="11">COL3</tspan></text><text x="954.0000000000001" y="-155.0" dominant-baseline="central" fill="black" font-size="11" font-family="sans" text-anchor="middle"><tspan x="954.0000000000001" dy="11">ROW0</tspan></text><text x="954.0000000000001" y="-65.0" dominant-baseline="central" fill="black" font-size="11" font-family="sans" text-anchor="middle"><tspan x="954.0000000000001" dy="11">ROW1</tspan></text><text x="954.0000000000001" y="25.0" dominant-baseline="central" fill="black" font-size="11" font-family="sans" text-anchor="middle"><tspan x="954.0000000000001" dy="11">ROW2</tspan></text><text x="392.40000000000003" y="195.9" dominant-baseline="central" fill="black" font-size="11" font-family="sans" text-anchor="middle"><tspan x="392.40000000000003" dy="11">EC11</tspan><tspan x="392.40000000000003" dy="11">ENC1</tspan></text><text x="306.0" y="244.6" dominant-baseline="central" fill="black" font-size="11" font-family="sans" text-anchor="end"><tspan x="306.0" dy="11">ENC_A</tspan></text><text x="340.20000000000005" y="244.6" dominant-baseline="central" fill="black" font-size="11" font-family="sans" text-anchor="start"><tspan x="340.20000000000005" dy="11">A</tspan></text><text x="306.0" y="262.59999999999997" dominant-baseline="central" fill="black" font-size="11" font-family="sans" text-anchor="end"><tspan x="306.0" dy="11">GND</tspan></text><text x="340.20000000000005" y="262.59999999999997" dominant-baseline="central" fill="black" font-size="11" font-family="sans" text-anchor="start"><tspan x="340.20000000000005" dy="11">C</tspan></text><text x="306.0" y="280.59999999999997" dominant-baseline="central" fill="black" font-size="11" font-family="sans" text-anchor="end"><tspan x="306.0" dy="11">ENC_B</tspan></text><text x="340.20000000000005" y="280.59999999999997" dominant-baseline="central" fill="black" font-size="11" font-family="sans" text-anchor="start"><tspan x="340.20000000000005" dy="11">B</tspan></text><text x="536.4" y="246.09999999999997" dominant-baseline="central" fill="black" font-size="11" font-family="sans" text-anchor="middle"><tspan x="536.4" dy="11">0.91"</tspan><tspan x="536.4" dy="11">SSD1306</tspan><tspan x="536.4" dy="11">128x32</tspan><tspan x="536.4" dy="11">J3</tspan></text><text x="504.0" y="226.6" dominant-baseline="central" fill="black" font-size="11" font-family="sans" text-anchor="end"><tspan x="504.0" dy="11">GND</tspan></text><text x="538.2" y="226.6" dominant-baseline="central" fill="black" font-size="11" font-family="sans" text-anchor="start"><tspan x="538.2" dy="11">GND</tspan></text><text x="504.0" y="250.0" dominant-baseline="central" fill="black" font-size="11" font-family="sans" text-anchor="end"><tspan x="504.0" dy="11">+5V</tspan></text><text x="538.2" y="250.0" dominant-baseline="central" fill="black" font-size="11" font-family="sans" text-anchor="start"><tspan x="538.2" dy="11">VCC</tspan></text><text x="504.0" y="275.2" dominant-baseline="central" fill="black" font-size="11" font-family="sans" text-anchor="end"><tspan x="504.0" dy="11">I2C_SCL</tspan></text><text x="538.2" y="275.2" dominant-baseline="central" fill="black" font-size="11" font-family="sans" text-anchor="start"><tspan x="538.2" dy="11">SCL</tspan></text><text x="504.0" y="298.59999999999997" dominant-baseline="central" fill="black" font-size="11" font-family="sans" text-anchor="end"><tspan x="504.0" dy="11">I2C_SDA</tspan></text><text x="538.2" y="298.59999999999997" dominant-baseline="central" fill="black" font-size="11" font-family="sans" text-anchor="start"><tspan x="538.2" dy="11">SDA</tspan></text><text x="356.40000000000003" y="-223.4" dominant-baseline="central" fill="black" font-size="11" font-family="sans" text-anchor="middle"><tspan x="356.40000000000003" dy="11">Hackpad v2 — 12-key + Encoder + OLED Macropad</tspan></text><text x="356.40000000000003" y="-201.8" dominant-baseline="central" fill="black" font-size="11" font-family="sans" text-anchor="middle"><tspan x="356.40000000000003" dy="11">Schematic (XIAO RP2040, KMK firmware)</tspan></text><circle cx="288" cy="-90" r="2.7" style="stroke:black;fill:black;stroke-width:2.0;stroke-dasharray:-;" /><circle cx="288" cy="-0" r="2.7" style="stroke:black;fill:black;stroke-width:2.0;stroke-dasharray:-;" /><circle cx="288" cy="90" r="2.7" style="stroke:black;fill:black;stroke-width:2.0;stroke-dasharray:-;" /><circle cx="414" cy="-90" r="2.7" style="stroke:black;fill:black;stroke-width:2.0;stroke-dasharray:-;" /><circle cx="414" cy="-0" r="2.7" style="stroke:black;fill:black;stroke-width:2.0;stroke-dasharray:-;" /><circle cx="414" cy="90" r="2.7" style="stroke:black;fill:black;stroke-width:2.0;stroke-dasharray:-;" /><circle cx="540" cy="-90" r="2.7" style="stroke:black;fill:black;stroke-width:2.0;stroke-dasharray:-;" /><circle cx="540" cy="-0" r="2.7" style="stroke:black;fill:black;stroke-width:2.0;stroke-dasharray:-;" /><circle cx="540" cy="90" r="2.7" style="stroke:black;fill:black;stroke-width:2.0;stroke-dasharray:-;" /><circle cx="666" cy="-90" r="2.7" style="stroke:black;fill:black;stroke-width:2.0;stroke-dasharray:-;" /><circle cx="666" cy="-0" r="2.7" style="stroke:black;fill:black;stroke-width:2.0;stroke-dasharray:-;" /><circle cx="666" cy="90" r="2.7" style="stroke:black;fill:black;stroke-width:2.0;stroke-dasharray:-;" /><circle cx="522" cy="-140.4" r="2.7" style="stroke:black;fill:black;stroke-width:2.0;stroke-dasharray:-;" /><circle cx="648" cy="-140.4" r="2.7" style="stroke:black;fill:black;stroke-width:2.0;stroke-dasharray:-;" /><circle cx="774" cy="-140.4" r="2.7" style="stroke:black;fill:black;stroke-width:2.0;stroke-dasharray:-;" /><circle cx="900" cy="-140.4" r="2.7" style="stroke:black;fill:black;stroke-width:2.0;stroke-dasharray:-;" /><circle cx="522" cy="-50.4" r="2.7" style="stroke:black;fill:black;stroke-width:2.0;stroke-dasharray:-;" /><circle cx="648" cy="-50.4" r="2.7" style="stroke:black;fill:black;stroke-width:2.0;stroke-dasharray:-;" /><circle cx="774" cy="-50.4" r="2.7" style="stroke:black;fill:black;stroke-width:2.0;stroke-dasharray:-;" /><circle cx="900" cy="-50.4" r="2.7" style="stroke:black;fill:black;stroke-width:2.0;stroke-dasharray:-;" /><circle cx="522" cy="39.6" r="2.7" style="stroke:black;fill:black;stroke-width:2.0;stroke-dasharray:-;" /><circle cx="648" cy="39.6" r="2.7" style="stroke:black;fill:black;stroke-width:2.0;stroke-dasharray:-;" /><circle cx="774" cy="39.6" r="2.7" style="stroke:black;fill:black;stroke-width:2.0;stroke-dasharray:-;" /><circle cx="900" cy="39.6" r="2.7" style="stroke:black;fill:black;stroke-width:2.0;stroke-dasharray:-;" /></svg>